<!-- Generator: Adobe Illustrator 21.0.0, SVG Export Plug-In  -->
<svg version="1.1"
	 xmlns="http://www.w3.org/2000/svg" xmlns:xlink="http://www.w3.org/1999/xlink" xmlns:a="http://ns.adobe.com/AdobeSVGViewerExtensions/3.0/"
	 x="0px" y="0px" width="1213.767px" height="127.694px" viewBox="0 0 1213.767 127.694"
	 style="overflow:scroll;enable-background:new 0 0 1213.767 127.694;" xml:space="preserve">
<style type="text/css">
	.st0{fill:#768A8F;}
	.st1{fill:#0F3F76;}
</style>
<defs>
</defs>
<g>
	<g>
		<polygon class="st0" points="0,23.47 0,30.443 27.049,30.443 30.324,30.443 30.324,127.679 38.151,127.679 38.151,30.443 
			41.426,30.443 68.054,30.443 68.054,23.47 		"/>
		<polygon class="st0" points="146.785,23.463 146.785,69.734 94.25,69.734 94.25,67.027 94.25,23.463 86.417,23.463 
			86.417,127.679 94.25,127.679 94.25,78.851 94.25,76.425 146.785,76.425 146.785,127.679 154.618,127.679 154.618,23.463 		"/>
		<path class="st0" d="M236.032,30.443V23.47h-51.808v104.208h2.431l0,0h49.376v-6.972H192.05V76.145h29.621
			c1.024,0,4.386-0.008,5.238-0.031v-6.661H192.05v-39.01H236.032z"/>
	</g>
	<g>
		<path class="st0" d="M493.155,36.831c0,0-3.673-17.037-25.681-19.305L500.488,0L493.155,36.831z"/>
		<g>
			<polygon class="st1" points="330.407,23.47 330.407,30.443 357.456,30.443 360.723,30.443 360.723,127.679 368.556,127.679 
				368.556,30.443 371.833,30.443 398.461,30.443 398.461,23.47 			"/>
			<path class="st1" d="M486.768,107.908c-1.18,3.727-2.751,6.807-4.697,9.248c-1.941,2.422-4.176,4.362-6.692,5.783
				c-2.518,1.424-5.075,2.487-7.685,3.177c-2.612,0.685-5.199,1.124-7.764,1.305c-2.564,0.181-4.84,0.274-6.832,0.274
				c-3.612,0-7.568-0.343-11.884-1.032c-4.324-0.689-8.334-2.017-12.032-4.004c-3.698-1.967-6.809-4.797-9.327-8.474
				c-2.516-3.673-3.768-8.505-3.768-14.477V58.068c0-6.16,0.736-11.427,2.204-15.79c1.471-4.362,3.754-7.951,6.834-10.749
				c3.08-2.807,6.996-4.855,11.741-6.137c4.745-1.29,10.351-1.929,16.8-1.929c5.121,0,9.828,0.546,14.095,1.648
				c4.268,1.109,7.951,2.922,11.03,5.456c3.088,2.518,5.481,5.925,7.192,10.195c1.713,4.278,2.564,9.583,2.564,15.924v37.782
				C488.55,99.707,487.957,104.185,486.768,107.908z M480.725,56.828c0-4.966-0.578-9.171-1.719-12.613
				c-1.149-3.454-2.86-6.253-5.159-8.409c-2.283-2.168-5.121-3.708-8.507-4.628c-3.384-0.916-7.271-1.378-11.664-1.378
				c-5.348,0-9.897,0.508-13.664,1.517c-3.769,1.017-6.849,2.642-9.225,4.894c-2.393,2.252-4.127,5.175-5.223,8.755
				c-1.103,3.581-1.642,7.912-1.642,12.963v41.917c0,4.139,0.876,7.585,2.643,10.337c1.758,2.757,4.025,4.971,6.793,6.622
				c2.767,1.656,5.918,2.819,9.444,3.508c3.525,0.689,7.011,1.04,10.451,1.04c3.33,0,6.646-0.227,9.943-0.686
				c3.284-0.462,6.216-1.54,8.788-3.246c2.58-1.698,4.676-4.22,6.301-7.585c1.627-3.354,2.439-7.966,2.439-13.853V56.828z"/>
			<polygon class="st1" points="657.843,23.463 630.7,76.287 603.772,23.463 595.648,23.463 626.511,84.68 626.511,127.679 
				634.342,127.679 634.342,84.68 665.975,23.463 			"/>
			<path class="st1" d="M558.902,81.423l-1.236-2.518c0,0,2.052-0.47,3.446-0.839c0.085-0.015,0.177-0.047,0.262-0.062
				c0.293-0.077,0.547-0.154,0.732-0.219l0,0c1.532-0.481,3.08-1.171,4.674-2.064c2.518-1.421,4.821-3.3,6.907-5.629
				c2.087-2.329,3.788-5.048,5.128-8.186c1.324-3.134,1.994-6.641,1.994-10.53c0-9.691-3.195-16.759-9.541-21.214
				c-6.36-4.466-15.616-6.692-27.767-6.692h-20.154l0,0h-5.895v104.208l0,0l0,0h7.833V79.421h24.156
				c0.134,0.25,0.751,1.421,0.751,1.421l23.247,46.837h9.333L558.902,81.423z M549.631,72.868h-24.344V40.839l0,0v-8.255
				c0-0.007,0-0.015,0-0.015v-2.125h2.531c0.008,0,0.015,0,0.015,0h16.092c3.889,0,7.573,0.327,11.034,1.001
				c3.473,0.662,6.484,1.374,9.048,2.984c2.556,1.621,4.605,3.846,6.122,6.692c1.517,2.849,2.272,6.403,2.272,10.68
				c0,7.115-2.11,12.405-6.33,15.87C561.844,71.139,556.361,72.868,549.631,72.868z"/>
			<path class="st1" d="M316.812,92.153c-0.807-2.657-2.228-5.205-4.276-7.635c-2.033-2.433-4.863-4.778-8.459-7.03
				c-3.613-2.245-8.216-4.424-13.822-6.534c-4.456-1.659-8.272-3.238-11.462-4.747c-3.173-1.517-5.76-3.15-7.754-4.886
				c-1.994-1.752-3.463-3.673-4.408-5.783c-0.955-2.114-1.425-4.636-1.425-7.577c0-2.664,0.401-5.09,1.205-7.292
				c0.805-2.206,2.204-4.081,4.204-5.644c1.987-1.567,4.63-2.784,7.897-3.654c3.284-0.866,7.427-1.305,12.461-1.305
				c4.551,0,8.561,0.323,12.024,0.962c3.471,0.643,6.099,1.29,7.912,1.933c0.061,0.015,0.125,0.031,0.187,0.047V25.75
				c-0.156-0.054-0.312-0.108-0.477-0.154c-0.945-0.327-2.274-0.651-3.985-0.97c-1.713-0.32-3.871-0.593-6.482-0.828
				c-2.612-0.227-5.91-0.343-9.897-0.343c-6.16,0-11.368,0.739-15.589,2.202c-4.222,1.471-7.639,3.346-10.241,5.644
				c-2.61,2.299-4.487,4.847-5.629,7.647c-1.139,2.799-1.704,5.529-1.704,8.186c0,4.043,0.641,7.527,1.923,10.468
				c1.275,2.938,3.126,5.548,5.55,7.847c2.424,2.299,5.309,4.316,8.678,6.052c3.369,1.752,7.146,3.4,11.319,4.963
				c4.942,1.925,9.038,3.762,12.322,5.506c3.267,1.74,5.877,3.627,7.824,5.637c1.948,2.025,3.299,4.189,4.058,6.48
				c0.758,2.291,1.141,4.955,1.141,7.982c0,3.581-0.781,6.584-2.353,9.021c-1.565,2.433-3.652,4.378-6.262,5.848
				c-2.61,1.471-5.675,2.526-9.179,3.165c-3.517,0.651-7.223,0.962-11.115,0.962c-3.504,0-6.592-0.204-9.241-0.616
				c-2.666-0.416-4.99-0.94-6.99-1.586c-1.985-0.643-3.698-1.301-5.121-1.987c-1.423-0.697-2.611-1.267-3.558-1.721
				c-0.015-0.015-0.031-0.015-0.046-0.015v8.316c1.821,0.751,4.112,1.517,6.878,2.291c4.559,1.29,10.68,1.933,18.365,1.933
				c4.932,0,9.608-0.508,14.024-1.517c4.418-1.009,8.311-2.61,11.672-4.817c3.377-2.202,6.053-5.024,8.053-8.467
				c1.985-3.446,2.986-7.589,2.986-12.467C318.023,97.57,317.617,94.814,316.812,92.153z"/>
		</g>
	</g>
	<g>
		<path class="st0" d="M1107.934,81.423l-1.232-2.518c0,0,2.048-0.47,3.45-0.839c0.085-0.015,0.17-0.047,0.254-0.062
			c0.301-0.077,0.547-0.154,0.739-0.219l0,0c1.525-0.481,3.08-1.171,4.674-2.064c2.518-1.421,4.813-3.3,6.899-5.629
			c2.087-2.329,3.796-5.048,5.121-8.186c1.332-3.134,2.002-6.641,2.002-10.53c0-9.691-3.188-16.759-9.548-21.214
			c-6.353-4.466-15.609-6.692-27.76-6.692h-20.152l0,0h-5.891v104.208l0,0l0,0h7.831V79.421h24.156
			c0.131,0.25,0.747,1.421,0.747,1.421l23.255,46.837h9.341L1107.934,81.423z M1098.663,72.868h-24.34V40.839h-0.008v-8.255
			c0-0.007,0-0.015,0-0.015v-2.125h2.541c0,0,0.015,0,0.023,0h16.086c3.888,0,7.569,0.327,11.034,1.001
			c3.465,0.662,6.476,1.374,9.04,2.984c2.557,1.621,4.597,3.846,6.122,6.692c1.517,2.849,2.28,6.403,2.28,10.68
			c0,7.115-2.118,12.405-6.345,15.87C1110.876,71.139,1105.393,72.868,1098.663,72.868z"/>
		<polygon class="st0" points="853.116,120.698 849.828,120.698 849.828,23.47 841.996,23.47 841.996,120.698 841.996,120.698 
			841.996,127.679 895.829,127.679 895.829,120.698 		"/>
		<polygon class="st0" points="926.553,120.698 923.265,120.698 923.265,23.47 915.442,23.47 915.442,120.698 915.434,120.698 
			915.434,127.679 969.267,127.679 969.267,120.698 		"/>
		<polygon class="st0" points="677.98,23.47 677.98,30.443 705.031,30.443 708.311,30.443 708.311,127.679 716.135,127.679 
			716.135,30.443 719.415,30.443 746.043,30.443 746.043,23.47 		"/>
		<path class="st0" d="M816.185,30.443V23.47h-51.8v104.208h2.433l0,0h49.367v-6.972h-43.969V76.145h29.616
			c1.024,0,4.373-0.008,5.236-0.031v-6.661h-34.852v-39.01H816.185z"/>
		<path class="st0" d="M1040.695,30.443V23.47h-51.808v104.208h2.441l0,0h49.367v-6.972h-43.969V76.145h29.607
			c1.032,0,4.389-0.008,5.252-0.031v-6.661h-34.859v-39.01H1040.695z"/>
		<path class="st0" d="M1212.55,92.153c-0.801-2.657-2.225-5.205-4.266-7.635c-2.041-2.433-4.859-4.778-8.47-7.03
			c-3.611-2.245-8.209-4.424-13.807-6.534c-4.466-1.659-8.293-3.238-11.466-4.747c-3.18-1.517-5.768-3.15-7.754-4.886
			c-2.002-1.752-3.473-3.673-4.42-5.783c-0.947-2.114-1.424-4.636-1.424-7.577c0-2.664,0.408-5.09,1.217-7.292
			c0.801-2.206,2.202-4.081,4.189-5.644c2.002-1.567,4.628-2.784,7.908-3.654c3.272-0.866,7.423-1.305,12.459-1.305
			c4.559,0,8.563,0.323,12.028,0.962c3.457,0.643,6.099,1.29,7.901,1.933c0.061,0.015,0.123,0.031,0.192,0.047V25.75
			c-0.162-0.054-0.308-0.108-0.477-0.154c-0.955-0.327-2.271-0.651-3.981-0.97c-1.71-0.32-3.874-0.593-6.476-0.828
			c-2.61-0.227-5.914-0.343-9.895-0.343c-6.176,0-11.373,0.739-15.593,2.202c-4.227,1.471-7.646,3.346-10.256,5.644
			c-2.61,2.299-4.49,4.847-5.621,7.647c-1.14,2.799-1.71,5.529-1.71,8.186c0,4.043,0.639,7.527,1.925,10.468
			c1.278,2.938,3.134,5.548,5.544,7.847c2.426,2.299,5.321,4.316,8.694,6.052c3.365,1.752,7.13,3.4,11.312,4.963
			c4.936,1.925,9.048,3.762,12.313,5.506c3.288,1.74,5.891,3.627,7.839,5.637c1.94,2.025,3.296,4.189,4.058,6.48
			c0.755,2.291,1.132,4.955,1.132,7.982c0,3.581-0.785,6.584-2.341,9.021c-1.571,2.433-3.658,4.378-6.276,5.848
			c-2.603,1.471-5.66,2.526-9.179,3.165c-3.511,0.651-7.207,0.962-11.096,0.962c-3.512,0-6.6-0.204-9.256-0.616
			c-2.664-0.416-4.99-0.94-6.976-1.586c-2.002-0.643-3.704-1.301-5.128-1.987c-1.424-0.697-2.61-1.267-3.557-1.721
			c-0.015-0.015-0.023-0.015-0.047-0.015v8.316c1.818,0.751,4.12,1.517,6.877,2.291c4.558,1.29,10.672,1.933,18.365,1.933
			c4.943,0,9.617-0.508,14.022-1.517c4.412-1.009,8.308-2.61,11.681-4.817c3.365-2.202,6.053-5.024,8.039-8.467
			c2.002-3.446,2.995-7.589,2.995-12.467C1213.767,97.57,1213.359,94.814,1212.55,92.153z"/>
	</g>
</g>
</svg>