<!-- Generator: Adobe Illustrator 21.0.0, SVG Export Plug-In  -->
<svg version="1.1"
	 xmlns="http://www.w3.org/2000/svg" xmlns:xlink="http://www.w3.org/1999/xlink" xmlns:a="http://ns.adobe.com/AdobeSVGViewerExtensions/3.0/"
	 x="0px" y="0px" width="1457.226px" height="957.937px" viewBox="0 0 1457.226 957.937"
	 style="overflow:scroll;enable-background:new 0 0 1457.226 957.937;" xml:space="preserve">
<style type="text/css">
	.st0{fill:#E7F5F8;}
	.st1{fill:#F3F9FA;}
	.st2{fill:#F1F9FA;}
	.st3{fill:#EFF8FA;}
	.st4{fill:#CADFED;}
	.st5{fill:#9CCEE8;}
	.st6{fill:#A5D8E7;}
	.st7{fill:#B6DFE6;}
	.st8{fill:#DEF0EA;}
	.st9{fill:#F3F9F4;}
	.st10{fill:#F1F8F3;}
	.st11{fill:#FAFDFF;}
	.st12{fill:#E6F0F6;}
	.st13{fill:#EAF3F8;}
	.st14{fill:#A0C0DD;}
	.st15{fill:#89BCDE;}
	.st16{fill:#A7D8E6;}
	.st17{fill:#A2D6DE;}
	.st18{fill:#74B3AC;}
	.st19{fill:#92C8B3;}
	.st20{fill:#ADD6B0;}
	.st21{fill:#C7E3C2;}
	.st22{fill:#F1F5DD;}
	.st23{fill:#F6F9ED;}
	.st24{fill:#77B6DC;}
	.st25{fill:#B1D9E3;}
	.st26{fill:#BEDFEB;}
	.st27{fill:#B6DDE7;}
	.st28{fill:#4D9CAD;}
	.st29{fill:#69ADA0;}
	.st30{fill:#AFDABD;}
	.st31{fill:#B6DAA6;}
	.st32{fill:#AFD797;}
	.st33{fill:#E9F4EB;}
	.st34{fill:#E7EDDC;}
	.st35{fill:#E1E9D5;}
	.st36{fill:#C4D861;}
	.st37{fill:#D2E070;}
	.st38{fill:#DDE472;}
	.st39{fill:#F3F6DD;}
	.st40{fill:#91C7E5;}
	.st41{fill:#8FCCE7;}
	.st42{fill:#67C0E3;}
	.st43{fill:#69BBCB;}
	.st44{fill:#90CFC8;}
	.st45{fill:#C2E4D8;}
	.st46{fill:#B1D799;}
	.st47{fill:#ACD58A;}
	.st48{fill:#97C45A;}
	.st49{fill:#9EC460;}
	.st50{fill:#FAFBF5;}
	.st51{fill:#F2F5D2;}
	.st52{fill:#E9EDA5;}
	.st53{fill:#E0E678;}
	.st54{fill:#E0E480;}
	.st55{fill:#F1F2D5;}
	.st56{fill:#EBECBA;}
	.st57{fill:#F9FCF8;}
	.st58{fill:#E4F3F0;}
	.st59{fill:#3B7FBA;}
	.st60{fill:#6BAAD5;}
	.st61{fill:#ADD5EB;}
	.st62{fill:#95C9E5;}
	.st63{fill:#65B9D9;}
	.st64{fill:#8BCACF;}
	.st65{fill:#D1E6BE;}
	.st66{fill:#A6CE80;}
	.st67{fill:#F4F3E6;}
	.st68{fill:#FFFFFF;}
	.st69{fill:#F4F4E3;}
	.st70{fill:#5E9BCC;}
	.st71{fill:#94C0DF;}
	.st72{fill:#589CCD;}
	.st73{fill:#4890C7;}
	.st74{fill:#71B6DD;}
	.st75{fill:#83B4D7;}
	.st76{fill:#E6F2F8;}
	.st77{fill:#E2ECF4;}
	.st78{fill:#91C2E0;}
	.st79{fill:#9BD1DA;}
	.st80{fill:#A7DBDC;}
	.st81{fill:#EDF7F8;}
	.st82{fill:#F6FAF5;}
	.st83{fill:#E7F0F4;}
	.st84{fill:#D4EBF2;}
	.st85{fill:#D3ECEF;}
	.st86{opacity:0.6;}
	.st87{fill:none;stroke:#FFFFFF;stroke-width:0.9895;stroke-miterlimit:10;}
</style>
<defs>
</defs>
<g>
	<polygon class="st0" points="984.081,21.303 1051.665,138.395 1119.277,21.303 	"/>
	<polygon class="st1" points="1051.665,138.395 984.081,21.322 916.469,138.395 	"/>
	<polygon class="st2" points="848.891,21.303 916.469,138.395 984.081,21.303 	"/>
</g>
<g>
	<polygon class="st2" points="1186.855,138.395 1254.433,255.464 1322.079,138.395 	"/>
	<polygon class="st3" points="1254.433,255.464 1186.855,138.395 1119.277,255.464 	"/>
	<polygon class="st4" points="1051.665,138.395 1119.277,255.464 1186.855,138.395 	"/>
	<polygon class="st5" points="1119.277,255.464 1051.665,138.395 984.081,255.464 	"/>
	<polygon class="st6" points="916.469,138.395 984.081,255.464 1051.665,138.395 	"/>
	<polygon class="st7" points="984.081,255.464 916.469,138.395 848.891,255.464 	"/>
	<polygon class="st8" points="781.279,138.395 848.891,255.464 916.469,138.395 	"/>
	<polygon class="st9" points="848.891,255.464 781.279,138.395 713.711,255.464 	"/>
	<polygon class="st10" points="646.099,138.395 713.711,255.464 781.279,138.395 	"/>
</g>
<polygon class="st11" points="1457.226,372.552 1389.657,255.464 1322.079,372.552 "/>
<polygon class="st12" points="1254.433,255.464 1322.079,372.552 1389.657,255.464 "/>
<polygon class="st13" points="1322.079,372.552 1254.433,255.464 1186.855,372.552 "/>
<polygon class="st14" points="1119.277,255.464 1186.855,372.552 1254.433,255.464 "/>
<polygon class="st15" points="1186.855,372.552 1119.277,255.464 1051.665,372.552 "/>
<polygon class="st16" points="984.081,255.464 1051.665,372.552 1119.277,255.464 "/>
<polygon class="st17" points="1051.665,372.552 984.081,255.464 916.469,372.552 "/>
<polygon class="st18" points="848.891,255.464 916.469,372.552 984.081,255.464 "/>
<polygon class="st19" points="916.469,372.552 848.891,255.464 781.279,372.552 "/>
<polygon class="st20" points="713.711,255.464 781.279,372.552 848.891,255.464 "/>
<polygon class="st21" points="781.279,372.552 713.711,255.464 646.099,372.552 "/>
<polygon class="st22" points="308.135,255.464 375.747,372.552 443.325,255.464 "/>
<polygon class="st23" points="172.945,255.464 240.592,372.552 308.135,255.464 "/>
<polygon class="st24" points="1186.855,372.552 1254.433,489.605 1322.079,372.552 "/>
<polygon class="st25" points="1254.433,489.62 1186.855,372.552 1119.277,489.62 "/>
<polygon class="st26" points="1051.665,372.552 1119.277,489.605 1186.855,372.552 "/>
<polygon class="st27" points="1119.277,489.62 1051.665,372.552 984.081,489.62 "/>
<polygon class="st28" points="916.469,372.552 984.081,489.605 1051.665,372.552 "/>
<polygon class="st29" points="984.081,489.62 916.469,372.552 848.891,489.62 "/>
<polygon class="st30" points="781.279,372.552 848.891,489.605 916.469,372.552 "/>
<polygon class="st31" points="848.891,489.62 781.279,372.552 713.711,489.62 "/>
<polygon class="st32" points="646.099,372.552 713.711,489.605 781.279,372.552 "/>
<polygon class="st33" points="713.711,489.62 646.099,372.552 578.521,489.62 "/>
<polygon class="st34" points="510.943,372.552 578.521,489.605 646.099,372.552 "/>
<polygon class="st35" points="578.521,489.62 510.943,372.552 443.325,489.62 "/>
<polygon class="st36" points="375.747,372.552 443.325,489.605 510.943,372.552 "/>
<polygon class="st37" points="443.325,489.62 375.747,372.552 308.135,489.62 "/>
<polygon class="st38" points="240.592,372.552 308.135,489.605 375.747,372.552 "/>
<polygon class="st39" points="308.135,489.62 240.592,372.552 172.945,489.62 "/>
<polygon class="st40" points="1119.277,489.62 1186.855,606.722 1254.433,489.62 "/>
<polygon class="st41" points="1186.855,606.703 1119.277,489.62 1051.665,606.703 "/>
<polygon class="st42" points="984.081,489.62 1051.665,606.722 1119.277,489.62 "/>
<polygon class="st43" points="1051.665,606.703 984.081,489.62 916.469,606.703 "/>
<polygon class="st44" points="848.891,489.62 916.469,606.722 984.081,489.62 "/>
<polygon class="st45" points="916.469,606.703 848.891,489.62 781.279,606.703 "/>
<polygon class="st46" points="713.711,489.62 781.279,606.722 848.891,489.62 "/>
<polygon class="st47" points="781.279,606.703 713.711,489.62 646.099,606.703 "/>
<polygon class="st48" points="578.521,489.62 646.099,606.722 713.711,489.62 "/>
<polygon class="st49" points="646.099,606.703 578.521,489.62 510.943,606.703 "/>
<polygon class="st50" points="443.325,489.62 510.943,606.722 578.521,489.62 "/>
<polygon class="st51" points="510.943,606.703 443.325,489.62 375.747,606.703 "/>
<polygon class="st52" points="308.135,489.62 375.747,606.722 443.325,489.62 "/>
<polygon class="st53" points="375.747,606.703 308.135,489.62 240.592,606.703 "/>
<polygon class="st54" points="172.945,489.62 240.592,606.722 308.135,489.62 "/>
<polygon class="st55" points="240.592,606.703 172.945,489.62 105.367,606.703 "/>
<polygon class="st56" points="37.799,489.62 105.367,606.722 172.945,489.62 "/>
<polygon class="st57" points="578.521,723.766 510.943,606.722 443.325,723.766 "/>
<polygon class="st50" points="443.325,723.766 375.747,606.722 308.135,723.766 "/>
<polygon class="st58" points="781.279,606.703 848.891,723.766 916.469,606.703 "/>
<polygon class="st59" points="1389.657,723.766 1322.079,606.722 1254.433,723.766 "/>
<polygon class="st60" points="1186.855,606.703 1254.433,723.766 1322.079,606.703 "/>
<polygon class="st61" points="1254.433,723.766 1186.855,606.722 1119.277,723.766 "/>
<polygon class="st62" points="1051.665,606.703 1119.277,723.766 1186.855,606.703 "/>
<polygon class="st63" points="1119.277,723.766 1051.665,606.722 984.081,723.766 "/>
<polygon class="st64" points="916.469,606.703 984.081,723.766 1051.665,606.703 "/>
<polygon class="st44" points="984.081,723.766 916.469,606.722 848.891,723.766 "/>
<polygon class="st65" points="848.891,723.766 781.279,606.722 713.711,723.766 "/>
<polygon class="st66" points="646.099,606.703 713.711,723.766 781.279,606.703 "/>
<polygon class="st67" points="713.711,723.766 646.099,606.722 578.521,723.766 "/>
<polygon class="st68" points="308.135,723.766 240.592,606.722 172.945,723.766 "/>
<polygon class="st69" points="172.945,723.766 105.367,606.722 37.799,723.766 "/>
<polygon class="st70" points="1322.079,372.552 1389.657,489.605 1457.226,372.552 "/>
<polygon class="st71" points="1389.657,489.62 1322.079,372.552 1254.433,489.62 "/>
<polygon class="st72" points="1457.226,606.703 1389.657,489.62 1322.079,606.703 "/>
<polygon class="st73" points="1254.433,489.62 1322.079,606.722 1389.657,489.62 "/>
<polygon class="st74" points="1322.079,606.703 1254.433,489.62 1186.855,606.703 "/>
<polygon class="st59" points="1389.657,723.766 1322.079,606.722 1254.433,723.766 "/>
<polygon class="st60" points="1186.855,606.703 1254.433,723.766 1322.079,606.703 "/>
<g>
	<polygon class="st75" points="1322.079,840.844 1254.433,723.766 1186.855,840.844 	"/>
	<polygon class="st76" points="1119.277,723.766 1186.855,840.859 1254.433,723.766 	"/>
	<polygon class="st77" points="1186.855,840.844 1119.277,723.766 1051.665,840.844 	"/>
	<polygon class="st78" points="984.081,723.766 1051.665,840.859 1119.277,723.766 	"/>
	<polygon class="st79" points="1051.665,840.844 984.081,723.766 916.469,840.844 	"/>
	<polygon class="st80" points="848.891,723.766 916.469,840.859 984.081,723.766 	"/>
	<polygon class="st81" points="916.469,840.844 848.891,723.766 781.279,840.844 	"/>
	<polygon class="st68" points="713.711,723.766 781.279,840.859 848.891,723.766 	"/>
	<polygon class="st82" points="781.279,840.844 713.711,723.766 646.099,840.844 	"/>
</g>
<g>
	<polygon class="st83" points="1119.277,957.937 1051.665,840.859 984.081,957.937 	"/>
	<polygon class="st84" points="916.469,840.844 984.081,957.937 1051.665,840.844 	"/>
	<polygon class="st85" points="984.081,957.937 916.469,840.859 848.891,957.937 	"/>
</g>
<g class="st86">
	<g>
		<g>
			<g>
				<polygon class="st87" points="1419.82,235.126 1352.208,118.058 1284.63,235.126 				"/>
				<polygon class="st87" points="1284.63,235.126 1352.208,352.218 1419.82,235.126 				"/>
				<polygon class="st87" points="1419.82,469.287 1352.208,352.218 1284.63,469.287 				"/>
				<polygon class="st87" points="1284.63,469.287 1352.208,586.365 1419.82,469.287 				"/>
			</g>
			<g>
				<polygon class="st87" points="1217.052,118.058 1284.63,235.126 1352.208,118.058 				"/>
				<polygon class="st87" points="1352.208,352.218 1284.63,235.15 1217.052,352.218 				"/>
				<polygon class="st87" points="1217.052,352.218 1284.63,469.287 1352.208,352.218 				"/>
				<polygon class="st87" points="1352.208,586.365 1284.63,469.287 1217.052,586.365 				"/>
				<polygon class="st87" points="1217.052,586.365 1284.63,703.443 1352.208,586.365 				"/>
				<polygon class="st87" points="1352.208,820.506 1284.63,703.443 1217.052,820.506 				"/>
			</g>
		</g>
		<g>
			<g>
				<polygon class="st87" points="1284.698,235.126 1217.071,118.058 1149.493,235.126 				"/>
				<polygon class="st87" points="1149.493,235.126 1217.071,352.218 1284.698,235.126 				"/>
				<polygon class="st87" points="1284.698,469.287 1217.071,352.218 1149.493,469.287 				"/>
				<polygon class="st87" points="1149.493,469.287 1217.071,586.365 1284.698,469.287 				"/>
				<polygon class="st87" points="1284.698,703.443 1217.071,586.365 1149.493,703.443 				"/>
				<polygon class="st87" points="1149.493,703.443 1217.071,820.506 1284.698,703.443 				"/>
				<polygon class="st87" points="1284.698,937.604 1217.071,820.506 1149.493,937.604 				"/>
			</g>
			<g>
				<polygon class="st87" points="1217.071,118.058 1149.493,0.99 1081.915,118.058 				"/>
				<polygon class="st87" points="1081.915,118.058 1149.493,235.126 1217.071,118.058 				"/>
				<polygon class="st87" points="1217.071,352.218 1149.493,235.15 1081.915,352.218 				"/>
				<polygon class="st87" points="1081.915,352.218 1149.493,469.287 1217.071,352.218 				"/>
				<polygon class="st87" points="1217.071,586.365 1149.493,469.287 1081.915,586.365 				"/>
				<polygon class="st87" points="1081.915,586.365 1149.493,703.443 1217.071,586.365 				"/>
				<polygon class="st87" points="1217.071,820.506 1149.493,703.443 1081.915,820.506 				"/>
				<polygon class="st87" points="1081.915,820.506 1149.493,937.604 1217.071,820.506 				"/>
			</g>
		</g>
		<g>
			<g>
				<polygon class="st87" points="1014.371,0.99 1081.939,118.058 1149.551,0.99 				"/>
				<polygon class="st87" points="1149.551,235.126 1081.939,118.058 1014.371,235.126 				"/>
				<polygon class="st87" points="1014.371,235.126 1081.939,352.218 1149.551,235.126 				"/>
				<polygon class="st87" points="1149.551,469.287 1081.939,352.218 1014.371,469.287 				"/>
				<polygon class="st87" points="1014.371,469.287 1081.939,586.365 1149.551,469.287 				"/>
				<polygon class="st87" points="1149.551,703.443 1081.939,586.365 1014.371,703.443 				"/>
				<polygon class="st87" points="1014.371,703.443 1081.939,820.506 1149.551,703.443 				"/>
				<polygon class="st87" points="1149.551,937.604 1081.939,820.506 1014.371,937.604 				"/>
			</g>
			<g>
				<polygon class="st87" points="1081.939,118.058 1014.371,0.99 946.779,118.058 				"/>
				<polygon class="st87" points="946.779,118.058 1014.371,235.126 1081.939,118.058 				"/>
				<polygon class="st87" points="1081.939,352.218 1014.371,235.15 946.779,352.218 				"/>
				<polygon class="st87" points="946.779,352.218 1014.371,469.287 1081.939,352.218 				"/>
				<polygon class="st87" points="1081.939,586.365 1014.371,469.287 946.779,586.365 				"/>
				<polygon class="st87" points="946.779,586.365 1014.371,703.443 1081.939,586.365 				"/>
				<polygon class="st87" points="1081.939,820.506 1014.371,703.443 946.779,820.506 				"/>
				<polygon class="st87" points="946.779,820.506 1014.371,937.604 1081.939,820.506 				"/>
			</g>
		</g>
		<g>
			<g>
				<polygon class="st87" points="879.234,0.99 946.803,118.058 1014.43,0.99 				"/>
				<polygon class="st87" points="1014.43,235.126 946.803,118.058 879.234,235.126 				"/>
				<polygon class="st87" points="879.234,235.126 946.803,352.218 1014.43,235.126 				"/>
				<polygon class="st87" points="1014.43,469.287 946.803,352.218 879.234,469.287 				"/>
				<polygon class="st87" points="879.234,469.287 946.803,586.365 1014.43,469.287 				"/>
				<polygon class="st87" points="1014.43,703.443 946.803,586.365 879.234,703.443 				"/>
				<polygon class="st87" points="879.234,703.443 946.803,820.506 1014.43,703.443 				"/>
				<polygon class="st87" points="1014.43,937.604 946.803,820.506 879.234,937.604 				"/>
			</g>
			<g>
				<polygon class="st87" points="946.803,118.058 879.234,0.99 811.647,118.058 				"/>
				<polygon class="st87" points="811.647,118.058 879.234,235.126 946.803,118.058 				"/>
				<polygon class="st87" points="946.803,352.218 879.234,235.15 811.647,352.218 				"/>
				<polygon class="st87" points="811.647,352.218 879.234,469.287 946.803,352.218 				"/>
				<polygon class="st87" points="946.803,586.365 879.234,469.287 811.647,586.365 				"/>
				<polygon class="st87" points="811.647,586.365 879.234,703.443 946.803,586.365 				"/>
				<polygon class="st87" points="946.803,820.506 879.234,703.443 811.647,820.506 				"/>
				<polygon class="st87" points="811.647,820.506 879.234,937.604 946.803,820.506 				"/>
			</g>
		</g>
		<g>
			<g>
				<polygon class="st87" points="879.283,235.126 811.681,118.058 744.103,235.126 				"/>
				<polygon class="st87" points="744.103,235.126 811.681,352.218 879.283,235.126 				"/>
				<polygon class="st87" points="879.283,469.287 811.681,352.218 744.103,469.287 				"/>
				<polygon class="st87" points="744.103,469.287 811.681,586.365 879.283,469.287 				"/>
				<polygon class="st87" points="879.283,703.443 811.681,586.365 744.103,703.443 				"/>
				<polygon class="st87" points="744.103,703.443 811.681,820.506 879.283,703.443 				"/>
			</g>
			<g>
				<polygon class="st87" points="676.525,118.058 744.103,235.126 811.681,118.058 				"/>
				<polygon class="st87" points="811.681,352.218 744.103,235.15 676.525,352.218 				"/>
				<polygon class="st87" points="676.525,352.218 744.103,469.287 811.681,352.218 				"/>
				<polygon class="st87" points="811.681,586.365 744.103,469.287 676.525,586.365 				"/>
				<polygon class="st87" points="676.525,586.365 744.103,703.443 811.681,586.365 				"/>
				<polygon class="st87" points="811.681,820.506 744.103,703.443 676.525,820.506 				"/>
				<polygon class="st87" points="676.525,820.506 744.103,937.604 811.681,820.506 				"/>
			</g>
		</g>
		<g>
			<g>
				<polygon class="st87" points="744.162,235.126 676.545,118.058 608.966,235.126 				"/>
				<polygon class="st87" points="608.966,235.126 676.545,352.218 744.162,235.126 				"/>
				<polygon class="st87" points="744.162,469.287 676.545,352.218 608.966,469.287 				"/>
				<polygon class="st87" points="608.966,469.287 676.545,586.365 744.162,469.287 				"/>
				<polygon class="st87" points="744.162,703.443 676.545,586.365 608.966,703.443 				"/>
				<polygon class="st87" points="608.966,703.443 676.545,820.506 744.162,703.443 				"/>
			</g>
			<g>
				<polygon class="st87" points="676.545,352.218 608.966,235.15 541.388,352.218 				"/>
				<polygon class="st87" points="541.388,352.218 608.966,469.287 676.545,352.218 				"/>
				<polygon class="st87" points="676.545,586.365 608.966,469.287 541.388,586.365 				"/>
				<polygon class="st87" points="541.388,586.365 608.966,703.443 676.545,586.365 				"/>
				<polygon class="st87" points="676.545,820.506 608.966,703.443 541.388,820.506 				"/>
				<polygon class="st87" points="541.388,820.506 608.966,937.604 676.545,820.506 				"/>
			</g>
		</g>
		<g>
			<g>
				<polygon class="st87" points="473.835,235.126 541.413,352.218 609.025,235.126 				"/>
				<polygon class="st87" points="609.025,469.287 541.413,352.218 473.835,469.287 				"/>
				<polygon class="st87" points="473.835,469.287 541.413,586.365 609.025,469.287 				"/>
				<polygon class="st87" points="609.025,703.443 541.413,586.365 473.835,703.443 				"/>
				<polygon class="st87" points="473.835,703.443 541.413,820.506 609.025,703.443 				"/>
			</g>
			<g>
				<polygon class="st87" points="541.413,352.218 473.835,235.15 406.252,352.218 				"/>
				<polygon class="st87" points="406.252,352.218 473.835,469.287 541.413,352.218 				"/>
				<polygon class="st87" points="541.413,586.365 473.835,469.287 406.252,586.365 				"/>
				<polygon class="st87" points="406.252,586.365 473.835,703.443 541.413,586.365 				"/>
				<polygon class="st87" points="541.413,820.506 473.835,703.443 406.252,820.506 				"/>
			</g>
		</g>
		<g>
			<g>
				<polygon class="st87" points="338.698,235.126 406.276,352.218 473.888,235.126 				"/>
				<polygon class="st87" points="473.888,469.287 406.276,352.218 338.698,469.287 				"/>
				<polygon class="st87" points="338.698,469.287 406.276,586.365 473.888,469.287 				"/>
				<polygon class="st87" points="473.888,703.443 406.276,586.365 338.698,703.443 				"/>
				<polygon class="st87" points="338.698,703.443 406.276,820.506 473.888,703.443 				"/>
			</g>
			<g>
				<polygon class="st87" points="406.276,352.218 338.698,235.15 271.12,352.218 				"/>
				<polygon class="st87" points="271.12,352.218 338.698,469.287 406.276,352.218 				"/>
				<polygon class="st87" points="406.276,586.365 338.698,469.287 271.12,586.365 				"/>
				<polygon class="st87" points="271.12,586.365 338.698,703.443 406.276,586.365 				"/>
			</g>
		</g>
		<g>
			<g>
				<polygon class="st87" points="203.571,235.126 271.144,352.218 338.757,235.126 				"/>
				<polygon class="st87" points="338.757,469.287 271.144,352.218 203.571,469.287 				"/>
				<polygon class="st87" points="203.571,469.287 271.144,586.365 338.757,469.287 				"/>
				<polygon class="st87" points="338.757,703.443 271.144,586.365 203.571,703.443 				"/>
				<polygon class="st87" points="203.571,703.443 271.144,820.506 338.757,703.443 				"/>
			</g>
			<g>
				<polygon class="st87" points="271.144,352.218 203.571,235.15 135.989,352.218 				"/>
				<polygon class="st87" points="135.989,352.218 203.571,469.287 271.144,352.218 				"/>
				<polygon class="st87" points="271.144,586.365 203.571,469.287 135.989,586.365 				"/>
				<polygon class="st87" points="135.989,586.365 203.571,703.443 271.144,586.365 				"/>
			</g>
		</g>
		<g>
			<g>
				<polygon class="st87" points="203.625,469.287 136.013,352.218 68.435,469.287 				"/>
				<polygon class="st87" points="68.435,469.287 136.013,586.365 203.625,469.287 				"/>
				<polygon class="st87" points="203.625,703.443 136.013,586.365 68.435,703.443 				"/>
				<polygon class="st87" points="68.435,703.443 136.013,820.506 203.625,703.443 				"/>
			</g>
			<g>
				<polygon class="st87" points="136.013,586.365 68.435,469.287 0.857,586.365 				"/>
				<polygon class="st87" points="0.857,586.365 68.435,703.443 136.013,586.365 				"/>
			</g>
		</g>
	</g>
</g>
</svg>