<!-- Generator: Adobe Illustrator 21.0.0, SVG Export Plug-In  -->
<svg version="1.1"
	 xmlns="http://www.w3.org/2000/svg" xmlns:xlink="http://www.w3.org/1999/xlink" xmlns:a="http://ns.adobe.com/AdobeSVGViewerExtensions/3.0/"
	 x="0px" y="0px" width="229.03px" height="188.743px" viewBox="0 0 229.03 188.743"
	 style="overflow:scroll;enable-background:new 0 0 229.03 188.743;" xml:space="preserve">
<style type="text/css">
	.st0{fill:#231F20;}
	.st1{fill:#FBAE25;}
	.st2{fill:#768A8F;}
	.st3{fill:#0F3F76;}
</style>
<defs>
</defs>
<g>
	<g>
		<g>
			<g>
				<path class="st0" d="M45.921,50.842v5.145h-7.022v23.036h-6.449V55.987h-7.18v-5.145H45.921z"/>
				<path class="st0" d="M50.868,50.842h6.265V61.52h7.905V50.842h6.337v28.181h-6.225V66.85h-7.984v12.173h-6.298V50.842z"/>
				<path class="st0" d="M78.739,50.842h18.926v5.145H84.878v5.988h8.794v5.152h-8.715v6.634h13.59v5.263H78.739V50.842z"/>
			</g>
			<g>
				<path class="st0" d="M39.735,90.953c-0.883-1.693-2.687-3.149-4.874-3.149c-3.222,0-3.301,2.418-3.301,2.727
					c0,1.996,1.844,2.799,3.57,3.413l3.57,1.304c1.693,0.612,3.689,1.772,4.802,3.301c0.343,0.467,1.574,2.306,1.574,4.96
					c0,1.265,0,5.026-3.992,7.444c-1.653,1.002-3.992,1.423-5.415,1.423c-4.954,0-7.872-1.193-10.402-5.724l4.795-3.182
					c1.034,2.378,2.918,3.84,5.336,3.84c1.35,0,3.761-0.619,3.761-3.195c0-2.108-1.146-2.569-5.375-4.216
					c-4.256-1.653-7.945-3.537-7.945-9.104c0-4.638,3.379-7.984,9.177-7.984c4.143,0,7.062,1.692,9.367,5.065L39.735,90.953z"/>
				<path class="st0" d="M69.332,83.384v5.152H62.31v23.03h-6.449v-23.03h-7.18v-5.152H69.332z"/>
				<path class="st0" d="M73.436,93.331c0-2.878,0.507-5.645,2.463-7.792c1.766-1.963,4.414-2.688,7.062-2.688
					c2.885,0,5.527,0.692,7.411,2.727c1.574,1.693,2.457,4.183,2.457,8.715v6.831c0,3.953-0.652,6.488-2.418,8.406
					c-2.345,2.536-5.718,2.806-7.523,2.806c-2.767,0-7.299-1.001-8.722-5.757c-0.612-1.996-0.731-4.453-0.731-5.685V93.331z
					 M79.734,102.158c0,2.965,0.579,5.066,3.34,5.066c3.346,0,3.346-3.109,3.346-5.066V92.37c0-1.957,0-4.335-3.268-4.335
					c-3.419,0-3.419,3.221-3.419,4.335V102.158z"/>
				<path class="st0" d="M105.721,111.565h-6.1V83.384h9.098c4.571,0,10.362,0.619,10.362,8.182c0,3.57-1.417,6.298-5.375,7.483
					l6.146,12.516h-6.719l-5.33-11.515h-2.082V111.565z M105.721,95.557c3.498,0,4.032,0,4.915-0.31
					c1.956-0.691,2.114-2.22,2.114-3.761c0-1.956-0.612-2.911-1.837-3.379c-0.962-0.343-1.733-0.343-5.191-0.343V95.557z"/>
				<path class="st0" d="M130.674,111.565v-11.133l-8.907-17.049h6.64l3.577,7.029c0.264,0.54,1.377,2.958,1.607,3.452h0.198
					c0.534-1.185,0.646-1.377,1.607-3.373l3.419-7.108h6.567l-8.491,16.818v11.363H130.674z"/>
			</g>
			<g>
				<path class="st1" d="M34.169,144.113v-11.133l-8.899-17.049h6.64l3.57,7.029c0.264,0.534,1.383,2.951,1.614,3.452h0.191
					c0.534-1.185,0.652-1.383,1.614-3.379l3.412-7.102h6.568l-8.484,16.818v11.363H34.169z"/>
				<path class="st1" d="M52.791,115.932h18.925v5.145H58.931v5.995h8.794v5.138h-8.715v6.64H72.6v5.264H52.791V115.932z"/>
				<path class="st1" d="M77.685,115.932h6.298v22.918h12.404v5.264H77.685V115.932z"/>
				<path class="st1" d="M101.215,115.932h6.298v22.918h12.398v5.264h-18.695V115.932z"/>
				<path class="st1" d="M125.2,115.932h18.926v5.145h-12.779v5.995h8.787v5.138h-8.715v6.64h13.59v5.264H125.2V115.932z"/>
				<path class="st1" d="M156.279,144.113h-6.107v-28.181h9.097c4.571,0,10.368,0.612,10.368,8.175c0,3.57-1.423,6.298-5.375,7.49
					l6.14,12.516h-6.719l-5.336-11.521h-2.068V144.113z M156.279,128.106c3.491,0,4.024,0,4.914-0.31
					c1.956-0.691,2.108-2.227,2.108-3.761c0-1.956-0.613-2.918-1.845-3.379c-0.961-0.349-1.725-0.349-5.177-0.349V128.106z"/>
				<path class="st1" d="M188.129,123.495c-0.882-1.686-2.681-3.142-4.874-3.142c-3.222,0-3.307,2.418-3.307,2.72
					c0,1.996,1.852,2.8,3.577,3.419l3.57,1.304c1.686,0.612,3.682,1.765,4.802,3.301c0.343,0.467,1.568,2.306,1.568,4.953
					c0,1.272,0,5.027-3.991,7.45c-1.647,0.995-3.992,1.423-5.415,1.423c-4.947,0-7.865-1.193-10.402-5.725l4.796-3.188
					c1.041,2.385,2.918,3.84,5.342,3.84c1.344,0,3.761-0.612,3.761-3.188c0-2.115-1.153-2.569-5.375-4.216
					c-4.262-1.66-7.944-3.537-7.944-9.104c0-4.644,3.373-7.984,9.176-7.984c4.144,0,7.062,1.686,9.367,5.065L188.129,123.495z"/>
			</g>
		</g>
		<polygon class="st0" points="218.734,164.317 0,164.317 0,31.442 161.16,31.442 161.16,37.285 5.836,37.285 5.836,158.48 
			212.891,158.48 212.891,38.794 218.734,38.794 		"/>
		<g>
			<path class="st1" d="M178.149,12.57c-0.349-0.612-0.994-1.002-1.706-1.034c-0.705-0.033-1.39,0.303-1.798,0.882
				c-3.59,5.164-7.628,10.632-11.535,15.929c-3.827,5.184-7.786,10.553-11.343,15.645l-19.156,11.06
				c-0.474,0.277-0.83,0.731-0.969,1.259c-0.145,0.534-0.072,1.1,0.211,1.58l1.37,2.385l-3.234,1.864
				c-2.977,1.719-4.005,5.54-2.286,8.518l0.83,1.443c1.153,1.996,3.261,3.116,5.408,3.116c1.061,0,2.128-0.27,3.11-0.836
				l3.241-1.871l1.377,2.385c0.382,0.673,1.081,1.041,1.805,1.041c0.349,0,0.705-0.086,1.034-0.283l6.324-3.649l16.541,28.642
				c0.382,0.672,1.08,1.041,1.798,1.041c0.355,0,0.712-0.086,1.034-0.277l7.595-4.387c0.474-0.277,0.824-0.724,0.975-1.265
				c0.138-0.527,0.059-1.093-0.21-1.568l-5.83-10.099l6.857-3.966c0.481-0.277,0.83-0.724,0.969-1.258s0.072-1.1-0.204-1.581
				l-4.987-8.636c-0.277-0.475-0.731-0.824-1.265-0.969c-0.534-0.138-1.093-0.066-1.574,0.211l-6.864,3.959l-3.643-6.311
				l1.641-0.942c6.192-0.54,12.812-1.285,19.229-2.003c6.528-0.738,13.287-1.502,19.544-2.036c0.712-0.059,1.338-0.48,1.674-1.106
				c0.329-0.626,0.31-1.39-0.047-1.996L178.149,12.57z M134.969,70.783c-0.988,0.573-2.26,0.23-2.832-0.758l-0.837-1.443
				c-0.567-0.995-0.231-2.273,0.764-2.839l3.234-1.871l2.675,4.617l0.244,0.422L134.969,70.783z M150.554,67.363L150.554,67.363
				l-6.324,3.649l-1.377-2.385l0,0l-4.993-8.636l0,0l-1.37-2.385l15.967-9.222l7.74,13.411l-2.233,1.291L150.554,67.363z
				 M172.806,72.528l2.912,5.033l-5.046,2.918l-2.905-5.04L172.806,72.528z M173.927,94.464l-3.999,2.299l-15.494-26.837
				l3.992-2.306L173.927,94.464z M191.06,57.502l-12.912-22.357c-0.573-0.995-1.844-1.338-2.839-0.758
				c-0.988,0.573-1.33,1.844-0.758,2.839l11.996,20.77c-1.377,0.158-2.76,0.316-4.124,0.467c-6.08,0.685-12.358,1.39-18.24,1.917
				l-4.255-7.371l-4.249-7.365c3.392-4.835,7.141-9.907,10.777-14.835c3.255-4.414,6.601-8.953,9.723-13.346l22.661,39.247
				C196.291,56.949,193.676,57.219,191.06,57.502L191.06,57.502z M191.06,57.502"/>
			<path class="st1" d="M196.416,31.95c0.389,0.666,1.081,1.041,1.805,1.041c0.349,0,0.712-0.092,1.034-0.283l19.44-11.224
				c0.994-0.573,1.337-1.845,0.758-2.839c-0.573-0.988-1.845-1.331-2.839-0.758L197.18,29.104
				C196.186,29.684,195.85,30.949,196.416,31.95L196.416,31.95z M196.416,31.95"/>
			<path class="st1" d="M193.491,23.314c0.329,0.191,0.685,0.283,1.041,0.283c0.711,0,1.416-0.376,1.798-1.041l11.218-19.44
				c0.58-0.988,0.237-2.259-0.751-2.839c-1.001-0.573-2.273-0.231-2.846,0.764l-11.224,19.433
				C192.161,21.476,192.496,22.747,193.491,23.314L193.491,23.314z M193.491,23.314"/>
			<path class="st1" d="M226.948,36.713h-22.443c-1.147,0-2.082,0.936-2.082,2.082s0.935,2.082,2.082,2.082h22.443
				c1.153,0,2.082-0.936,2.082-2.082S228.101,36.713,226.948,36.713L226.948,36.713z M226.948,36.713"/>
		</g>
	</g>
	<g>
		<g>
			<g>
				<path class="st0" d="M25.987,186.872h-0.639l2.029-4.769h0.679l2.035,4.769h-0.685l-0.613-1.502h-1.58l0.171-0.501h1.199
					l-0.889-2.161L25.987,186.872z"/>
				<path class="st0" d="M32.001,183.512c0.468-0.099,0.942-0.145,1.443-0.145c1.12,0,1.686,0.56,1.686,1.667
					c0,1.225-0.567,1.837-1.693,1.837c-0.283,0-0.56-0.059-0.817-0.171v1.436h-0.619V183.512z M32.62,186.154
					c0.237,0.119,0.514,0.184,0.81,0.184c0.725,0,1.087-0.441,1.087-1.311c0-0.764-0.356-1.146-1.081-1.146
					c-0.316,0-0.586,0.026-0.817,0.079V186.154z"/>
				<path class="st0" d="M35.789,186.872v-3.504h0.422l0.106,0.448c0.303-0.296,0.679-0.448,1.106-0.448v0.514
					c-0.422,0-0.758,0.151-1.021,0.441v2.549H35.789z"/>
				<path class="st0" d="M39.313,183.367c0.995,0,1.495,0.494,1.495,1.482c0,0.132-0.007,0.283-0.026,0.448h-2.464
					c0,0.718,0.422,1.074,1.259,1.074c0.395,0,0.751-0.046,1.06-0.138v0.507c-0.31,0.086-0.691,0.132-1.126,0.132
					c-1.205,0-1.805-0.599-1.805-1.792C37.706,183.934,38.239,183.367,39.313,183.367z M38.318,184.784h1.898
					c-0.013-0.619-0.316-0.923-0.903-0.923C38.694,183.861,38.358,184.165,38.318,184.784z"/>
				<path class="st0" d="M41.435,186.7v-0.534c0.408,0.138,0.83,0.204,1.245,0.204c0.56,0,0.837-0.165,0.837-0.501
					c0-0.31-0.192-0.467-0.587-0.467h-0.494c-0.758,0-1.139-0.343-1.139-1.035c0-0.665,0.494-1.001,1.462-1.001
					c0.415,0,0.836,0.053,1.245,0.165v0.534c-0.408-0.132-0.83-0.198-1.245-0.198c-0.58,0-0.876,0.171-0.876,0.501
					c0,0.316,0.184,0.461,0.553,0.461h0.494c0.804,0,1.206,0.349,1.206,1.041c0,0.665-0.481,1.001-1.456,1.001
					C42.264,186.872,41.843,186.812,41.435,186.7z"/>
				<path class="st0" d="M46.244,183.367c0.994,0,1.495,0.494,1.495,1.482c0,0.132-0.013,0.283-0.033,0.448h-2.457
					c0,0.718,0.415,1.074,1.251,1.074c0.402,0,0.758-0.046,1.067-0.138v0.507c-0.31,0.086-0.685,0.132-1.133,0.132
					c-1.199,0-1.805-0.599-1.805-1.792C44.629,183.934,45.17,183.367,46.244,183.367z M45.249,184.784h1.897
					c-0.013-0.619-0.316-0.923-0.902-0.923C45.618,183.861,45.295,184.165,45.249,184.784z"/>
				<path class="st0" d="M48.397,186.872v-3.504h0.422l0.105,0.448c0.362-0.296,0.751-0.448,1.186-0.448
					c0.869,0,1.305,0.435,1.305,1.305v2.2h-0.619v-2.213c0-0.514-0.257-0.777-0.778-0.777c-0.349,0-0.685,0.151-1.001,0.441v2.549
					H48.397z"/>
				<path class="st0" d="M52.244,182.801h0.389l0.138,0.567h0.942v0.501h-0.85v2.016c0,0.323,0.145,0.488,0.422,0.488h0.428v0.501
					h-0.586c-0.587,0-0.883-0.316-0.883-0.942V182.801z"/>
				<path class="st0" d="M54.161,185.811c0-0.718,0.474-1.074,1.423-1.074c0.297,0,0.606,0.02,0.909,0.066v-0.336
					c0-0.402-0.31-0.6-0.942-0.6c-0.362,0-0.731,0.059-1.106,0.171v-0.507c0.375-0.112,0.744-0.165,1.106-0.165
					c1.041,0,1.562,0.362,1.562,1.087v2.418h-0.349l-0.21-0.349c-0.349,0.231-0.731,0.349-1.14,0.349
					C54.576,186.872,54.161,186.516,54.161,185.811z M55.584,185.238c-0.534,0-0.81,0.185-0.81,0.56
					c0,0.382,0.211,0.573,0.639,0.573c0.428,0,0.791-0.119,1.081-0.343v-0.724C56.191,185.258,55.881,185.238,55.584,185.238z"/>
				<path class="st0" d="M57.942,182.801h0.389l0.132,0.567h0.948v0.501h-0.857v2.016c0,0.323,0.145,0.488,0.422,0.488h0.435v0.501
					h-0.586c-0.593,0-0.883-0.316-0.883-0.942V182.801z"/>
				<path class="st0" d="M60.709,182.103v0.579H60.09v-0.579H60.709z M60.709,183.367v3.504H60.09v-3.504H60.709z"/>
				<path class="st0" d="M61.434,185.12c0-1.166,0.553-1.752,1.667-1.752c1.12,0,1.673,0.586,1.673,1.752
					c0,1.166-0.553,1.746-1.673,1.746C61.994,186.866,61.441,186.286,61.434,185.12z M63.101,186.371
					c0.705,0,1.054-0.422,1.054-1.265c0-0.824-0.349-1.238-1.054-1.238c-0.698,0-1.054,0.415-1.054,1.238
					C62.046,185.95,62.402,186.371,63.101,186.371z"/>
				<path class="st0" d="M65.433,186.872v-3.504h0.422l0.105,0.448c0.362-0.296,0.751-0.448,1.186-0.448
					c0.876,0,1.304,0.435,1.304,1.305v2.2h-0.612v-2.213c0-0.514-0.263-0.777-0.784-0.777c-0.349,0-0.685,0.151-1.001,0.441v2.549
					H65.433z"/>
				<path class="st0" d="M70.61,185.12c0-1.166,0.56-1.752,1.666-1.752c1.114,0,1.674,0.586,1.674,1.752
					c0,1.166-0.56,1.746-1.674,1.746C71.176,186.866,70.623,186.286,70.61,185.12z M72.276,186.371c0.705,0,1.054-0.422,1.054-1.265
					c0-0.824-0.349-1.238-1.054-1.238c-0.698,0-1.047,0.415-1.047,1.238C71.23,185.95,71.578,186.371,72.276,186.371z"/>
				<path class="st0" d="M74.615,186.872v-3.669c0-0.85,0.474-1.272,1.436-1.272c0.264,0,0.514,0.04,0.744,0.132v0.494
					c-0.217-0.086-0.467-0.132-0.744-0.132c-0.553,0-0.824,0.251-0.824,0.751v0.191h1.087v0.501h-1.087v3.004H74.615z"/>
			</g>
		</g>
		<g>
			<polygon class="st2" points="83.396,179.29 83.396,179.923 85.846,179.923 86.15,179.923 86.15,188.743 86.855,188.743 
				86.855,179.923 87.151,179.923 89.569,179.923 89.569,179.29 83.396,179.29 			"/>
			<polygon class="st2" points="96.703,179.29 96.703,183.486 91.946,183.486 91.946,183.242 91.946,179.29 91.235,179.29 
				91.235,188.743 91.946,188.743 91.946,184.316 91.946,184.092 96.703,184.092 96.703,188.743 97.421,188.743 97.421,179.29 
				96.703,179.29 			"/>
			<path class="st2" d="M104.798,179.923v-0.633h-4.69v9.453h0.217l0,0h4.473v-0.633h-3.985v-4.045h2.687
				c0.086,0,0.395,0,0.474-0.007v-0.599h-3.162v-3.537H104.798L104.798,179.923z"/>
			<path class="st2" d="M128.118,180.502c0,0-0.329-1.548-2.325-1.746l2.998-1.594L128.118,180.502L128.118,180.502z"/>
			<polygon class="st3" points="113.362,179.29 113.362,179.923 115.812,179.923 116.116,179.923 116.116,188.743 116.827,188.743 
				116.827,179.923 117.124,179.923 119.528,179.923 119.528,179.29 113.362,179.29 			"/>
			<path class="st3" d="M127.538,186.945c-0.105,0.343-0.244,0.619-0.422,0.843c-0.178,0.217-0.382,0.395-0.606,0.527
				c-0.231,0.125-0.468,0.224-0.698,0.283c-0.237,0.059-0.475,0.098-0.705,0.125c-0.231,0.013-0.442,0.02-0.619,0.02
				c-0.33,0-0.685-0.033-1.081-0.092c-0.389-0.059-0.751-0.184-1.087-0.362c-0.336-0.178-0.619-0.435-0.85-0.771
				c-0.224-0.336-0.343-0.77-0.343-1.311v-3.782c0-0.56,0.073-1.027,0.204-1.429c0.132-0.395,0.343-0.718,0.619-0.975
				c0.283-0.257,0.632-0.441,1.06-0.56c0.428-0.112,0.942-0.171,1.529-0.171c0.467,0,0.889,0.046,1.278,0.152
				c0.389,0.098,0.718,0.263,1.002,0.494c0.277,0.231,0.494,0.534,0.652,0.922c0.159,0.389,0.231,0.869,0.231,1.443v3.432
				C127.703,186.207,127.643,186.615,127.538,186.945L127.538,186.945z M126.992,182.32c0-0.455-0.053-0.836-0.159-1.146
				c-0.098-0.316-0.257-0.567-0.461-0.764c-0.211-0.198-0.468-0.336-0.771-0.422c-0.316-0.079-0.659-0.125-1.06-0.125
				c-0.481,0-0.896,0.046-1.238,0.138c-0.343,0.092-0.626,0.237-0.836,0.448c-0.218,0.198-0.382,0.467-0.475,0.797
				c-0.098,0.323-0.151,0.712-0.151,1.166v3.801c0,0.382,0.079,0.691,0.244,0.935c0.159,0.257,0.362,0.455,0.612,0.606
				c0.25,0.151,0.534,0.257,0.857,0.316c0.322,0.065,0.639,0.092,0.948,0.092c0.303,0,0.6-0.02,0.903-0.059
				c0.296-0.039,0.567-0.138,0.803-0.289c0.231-0.159,0.416-0.389,0.561-0.692c0.151-0.303,0.224-0.724,0.224-1.258V182.32
				L126.992,182.32z"/>
			<polygon class="st3" points="143.051,179.29 140.601,184.079 138.151,179.29 137.42,179.29 140.212,184.843 140.212,188.743 
				140.924,188.743 140.924,184.843 143.796,179.29 143.051,179.29 			"/>
			<path class="st3" d="M134.086,184.547l-0.119-0.231c0,0,0.192-0.039,0.316-0.072c0,0,0.014-0.007,0.026-0.007
				c0.02-0.007,0.047-0.013,0.066-0.026l0,0c0.132-0.04,0.277-0.105,0.422-0.184c0.231-0.125,0.434-0.297,0.626-0.507
				c0.191-0.211,0.349-0.461,0.467-0.745c0.112-0.283,0.178-0.606,0.178-0.955c0-0.876-0.29-1.522-0.863-1.924
				c-0.579-0.401-1.416-0.606-2.523-0.606h-1.825l0,0h-0.534v9.453l0,0l0,0h0.712v-4.381h2.187c0.013,0.026,0.072,0.132,0.072,0.132
				l2.108,4.249h0.843L134.086,184.547L134.086,184.547z M133.243,183.769h-2.206v-2.905l0,0v-0.751l0,0v-0.191h0.224h0.006h1.456
				c0.355,0,0.691,0.032,1.008,0.092c0.31,0.059,0.579,0.125,0.817,0.27c0.231,0.145,0.415,0.349,0.553,0.606
				c0.138,0.257,0.211,0.579,0.211,0.969c0,0.646-0.192,1.126-0.58,1.442C134.35,183.611,133.855,183.769,133.243,183.769
				L133.243,183.769z"/>
			<path class="st3" d="M112.13,185.521c-0.072-0.244-0.204-0.474-0.389-0.691c-0.184-0.224-0.441-0.435-0.764-0.639
				c-0.329-0.204-0.751-0.402-1.258-0.593c-0.402-0.152-0.751-0.29-1.034-0.435c-0.29-0.138-0.527-0.283-0.712-0.441
				c-0.177-0.158-0.31-0.336-0.395-0.527c-0.086-0.192-0.125-0.416-0.125-0.685c0-0.244,0.026-0.461,0.105-0.658
				c0.072-0.204,0.198-0.376,0.382-0.514c0.178-0.145,0.416-0.25,0.718-0.329c0.29-0.08,0.672-0.119,1.126-0.119
				c0.415,0,0.777,0.026,1.087,0.092c0.316,0.053,0.56,0.112,0.718,0.171c0.006,0,0.013,0,0.013,0v-0.652
				c-0.007-0.007-0.02-0.013-0.04-0.02c-0.085-0.026-0.204-0.059-0.362-0.086c-0.151-0.026-0.349-0.059-0.586-0.072
				c-0.237-0.026-0.534-0.033-0.896-0.033c-0.56,0-1.027,0.066-1.417,0.198c-0.382,0.132-0.691,0.303-0.928,0.514
				c-0.237,0.21-0.409,0.441-0.507,0.691c-0.106,0.25-0.159,0.507-0.159,0.745c0,0.369,0.066,0.679,0.178,0.948
				c0.119,0.264,0.283,0.501,0.507,0.705c0.21,0.217,0.474,0.402,0.784,0.553c0.303,0.159,0.646,0.31,1.021,0.455
				c0.448,0.178,0.823,0.343,1.12,0.494c0.296,0.159,0.534,0.33,0.711,0.521c0.178,0.178,0.297,0.369,0.369,0.579
				c0.073,0.211,0.099,0.448,0.099,0.724c0,0.33-0.066,0.6-0.211,0.824c-0.145,0.211-0.329,0.395-0.567,0.527
				c-0.23,0.132-0.513,0.231-0.836,0.29c-0.316,0.053-0.652,0.079-1.008,0.079c-0.316,0-0.593-0.013-0.836-0.053
				c-0.237-0.033-0.448-0.086-0.633-0.145c-0.177-0.059-0.336-0.118-0.461-0.177c-0.132-0.059-0.237-0.112-0.33-0.159l0,0v0.751
				c0.165,0.072,0.369,0.138,0.626,0.21c0.409,0.112,0.969,0.178,1.66,0.178c0.448,0,0.876-0.047,1.272-0.138
				c0.402-0.092,0.758-0.237,1.067-0.442c0.303-0.198,0.546-0.454,0.724-0.764c0.185-0.31,0.27-0.692,0.27-1.126
				C112.236,186.009,112.203,185.759,112.13,185.521L112.13,185.521z"/>
			<path class="st2" d="M183.874,184.547l-0.112-0.231c0,0,0.184-0.039,0.316-0.072c0.007,0,0.02-0.007,0.02-0.007
				c0.026-0.007,0.053-0.013,0.072-0.026l0,0c0.138-0.04,0.27-0.105,0.422-0.184c0.224-0.125,0.435-0.297,0.626-0.507
				c0.191-0.211,0.343-0.461,0.467-0.745c0.112-0.283,0.178-0.606,0.178-0.955c0-0.876-0.29-1.522-0.863-1.924
				c-0.58-0.401-1.417-0.606-2.523-0.606h-1.825l0,0h-0.54v9.453l0,0l0,0h0.718v-4.381h2.187c0.013,0.026,0.066,0.132,0.066,0.132
				l2.108,4.249h0.85L183.874,184.547L183.874,184.547z M183.031,183.769h-2.2v-2.905l0,0v-0.751l0,0v-0.191h0.224h0.007h1.456
				c0.355,0,0.685,0.032,1.001,0.092c0.316,0.059,0.587,0.125,0.817,0.27c0.237,0.145,0.422,0.349,0.554,0.606
				c0.144,0.257,0.21,0.579,0.21,0.969c0,0.646-0.191,1.126-0.573,1.442C184.144,183.611,183.65,183.769,183.031,183.769
				L183.031,183.769z"/>
			<polygon class="st2" points="160.772,188.11 160.468,188.11 160.468,179.29 159.757,179.29 159.757,188.11 159.757,188.11 
				159.757,188.743 164.638,188.743 164.638,188.11 160.772,188.11 			"/>
			<polygon class="st2" points="167.425,188.11 167.129,188.11 167.129,179.29 166.417,179.29 166.417,188.11 166.417,188.11 
				166.417,188.743 171.298,188.743 171.298,188.11 167.425,188.11 			"/>
			<polygon class="st2" points="144.883,179.29 144.883,179.923 147.34,179.923 147.63,179.923 147.63,188.743 148.341,188.743 
				148.341,179.923 148.637,179.923 151.055,179.923 151.055,179.29 144.883,179.29 			"/>
			<path class="st2" d="M157.419,179.923v-0.633h-4.704v9.453h0.224l0,0h4.48v-0.633h-3.992v-4.045h2.687
				c0.099,0,0.402,0,0.475-0.007v-0.599h-3.162v-3.537H157.419L157.419,179.923z"/>
			<path class="st2" d="M177.781,179.923v-0.633h-4.704v9.453h0.224l0,0h4.48v-0.633h-3.992v-4.045h2.687
				c0.092,0,0.395,0,0.474-0.007v-0.599h-3.162v-3.537H177.781L177.781,179.923z"/>
			<path class="st2" d="M193.366,185.521c-0.072-0.244-0.204-0.474-0.389-0.691c-0.185-0.224-0.441-0.435-0.771-0.639
				c-0.322-0.204-0.744-0.402-1.251-0.593c-0.402-0.152-0.751-0.29-1.034-0.435c-0.297-0.138-0.527-0.283-0.712-0.441
				c-0.178-0.158-0.31-0.336-0.395-0.527c-0.086-0.192-0.132-0.416-0.132-0.685c0-0.244,0.032-0.461,0.112-0.658
				c0.072-0.204,0.198-0.376,0.375-0.514c0.185-0.145,0.422-0.25,0.718-0.329c0.296-0.08,0.679-0.119,1.126-0.119
				c0.415,0,0.784,0.026,1.093,0.092c0.316,0.053,0.56,0.112,0.724,0.171h0.013v-0.652c-0.013-0.007-0.033-0.013-0.047-0.02
				c-0.086-0.026-0.204-0.059-0.362-0.086c-0.152-0.026-0.349-0.059-0.586-0.072c-0.237-0.026-0.534-0.033-0.896-0.033
				c-0.56,0-1.034,0.066-1.41,0.198c-0.389,0.132-0.698,0.303-0.936,0.514c-0.237,0.21-0.401,0.441-0.507,0.691
				c-0.105,0.25-0.158,0.507-0.158,0.745c0,0.369,0.059,0.679,0.178,0.948c0.118,0.264,0.283,0.501,0.501,0.705
				c0.217,0.217,0.481,0.402,0.791,0.553c0.31,0.159,0.646,0.31,1.021,0.455c0.448,0.178,0.824,0.343,1.12,0.494
				c0.297,0.159,0.534,0.33,0.712,0.521c0.178,0.178,0.297,0.369,0.369,0.579c0.072,0.211,0.098,0.448,0.098,0.724
				c0,0.33-0.065,0.6-0.21,0.824c-0.138,0.211-0.329,0.395-0.567,0.527c-0.237,0.132-0.514,0.231-0.83,0.29
				c-0.323,0.053-0.652,0.079-1.015,0.079c-0.316,0-0.6-0.013-0.836-0.053c-0.237-0.033-0.449-0.086-0.626-0.145
				c-0.185-0.059-0.343-0.118-0.468-0.177c-0.132-0.059-0.237-0.112-0.329-0.159l0,0v0.751c0.165,0.072,0.369,0.138,0.626,0.21
				c0.408,0.112,0.968,0.178,1.66,0.178c0.448,0,0.876-0.047,1.272-0.138c0.401-0.092,0.758-0.237,1.06-0.442
				c0.31-0.198,0.553-0.454,0.731-0.764c0.178-0.31,0.27-0.692,0.27-1.126C193.471,186.009,193.438,185.759,193.366,185.521
				L193.366,185.521z"/>
		</g>
	</g>
</g>
</svg>