<!-- Generator: Adobe Illustrator 21.0.0, SVG Export Plug-In  -->
<svg version="1.1"
	 xmlns="http://www.w3.org/2000/svg" xmlns:xlink="http://www.w3.org/1999/xlink" xmlns:a="http://ns.adobe.com/AdobeSVGViewerExtensions/3.0/"
	 x="0px" y="0px" width="423.945px" height="97.075px" viewBox="0 0 423.945 97.075"
	 style="overflow:scroll;enable-background:new 0 0 423.945 97.075;" xml:space="preserve">
<style type="text/css">
	.st0{fill:#C3122F;}
	.st1{fill:#B1B3B5;}
	.st2{fill:#FFFFFF;}
	.st3{fill:#231F20;}
</style>
<defs>
</defs>
<g>
	<rect x="30.475" y="0.861" class="st0" width="69.636" height="69.636"/>
	<rect y="25.381" class="st1" width="71.693" height="71.694"/>
	<path class="st2" d="M58.721,79.208l5.048-19.58H40.332l-5.049,19.58h-7.873l4.995-19.58H10.332l1.264-6.481h22.518l5.502-23.366
		H17.065l1.262-6.479h23.065l5.609-22.16h7.87l-5.609,22.16h23.434l5.722-22.441h7.872l-5.666,22.441h22.067l-1.262,6.479H78.912
		l-5.501,23.366h22.55l-1.262,6.481H71.637l-5.048,19.58H58.721z M42.046,53.147h23.372l5.562-23.366H47.609L42.046,53.147z"/>
	<g>
		<path class="st0" d="M153.106,94.957c-3.732,1.412-7.967,2.118-12.706,2.118c-15.531,0-23.295-7.514-23.295-22.538
			c0-14.221,7.764-21.328,23.295-21.328c4.739,0,8.973,0.706,12.706,2.117v7.26c-3.732-1.613-7.765-2.42-12.102-2.42
			c-10.387,0-15.58,4.79-15.58,14.37c0,10.386,5.192,15.579,15.58,15.579c4.337,0,8.369-0.808,12.102-2.421V94.957z"/>
		<path class="st0" d="M167.142,53.511v43.262h-8.017V53.511H167.142z"/>
		<path class="st0" d="M201.258,65.006v31.767h-6.262l-0.967-4.054c-3.651,2.703-7.524,4.054-11.618,4.054
			c-6.495,0-9.742-3.844-9.742-11.528v-20.24h8.017v20.027c0,3.51,1.533,5.265,4.599,5.265c2.601,0,5.253-1.039,7.956-3.117V65.006
			H201.258z"/>
		<path class="st0" d="M206.256,53.511h8.017v13.916c2.4-1.613,5.072-2.421,8.017-2.421c9.035,0,13.553,5.083,13.553,15.249
			c0,11.011-5.174,16.518-15.52,16.518c-4.356,0-9.045-0.436-14.068-1.302V53.511z M214.273,89.419
			c1.835,0.587,3.963,0.879,6.383,0.879c4.841,0,7.26-3.419,7.26-10.255c0-5.586-2.087-8.379-6.261-8.379
			c-2.704,0-5.163,0.543-7.382,1.631V89.419z"/>
	</g>
	<g>
		<path class="st3" d="M117.105,44.984V0h20.223c9.364,0,14.111,4.392,14.111,13.054c0,9.261-6.343,14.932-18.852,16.854
			l-0.844,0.131l-1.42-8.82l0.831-0.149c6.852-1.235,10.183-3.78,10.183-7.776c0-3.128-1.396-4.524-4.524-4.524h-9.971v36.213
			H117.105z"/>
		<path class="st3" d="M154.255,44.984V11.497h7.737l0.816,3.311c2.626-2.199,5.426-3.311,8.342-3.311h0.861v8.194h-0.861
			c-2.666,0-5.01,1.051-7.156,3.21v22.083H154.255z"/>
		<path class="st3" d="M191.449,44.984c-12.034,0-18.135-5.755-18.135-17.107c0-10.868,5.308-16.379,15.775-16.379
			c10.166,0,15.322,5.256,15.322,15.622c0,1.344-0.096,2.705-0.281,4.052l-0.104,0.741h-20.94c0.184,1.851,1.363,4.996,8.968,4.996
			c3.141,0,6.323-0.3,9.461-0.894l1.02-0.193v8.086l-0.678,0.148C199.004,44.671,195.503,44.984,191.449,44.984z M194.869,24.626
			c-0.189-3.486-2.04-5.114-5.779-5.114c-3.496,0-5.4,1.629-5.934,5.114H194.869z"/>
		<path class="st3" d="M221.49,45.286c-4.49,0-8.595-0.626-12.198-1.862l-0.582-0.199v-8.542l1.18,0.473
			c3.411,1.364,7.416,2.056,11.902,2.056c4.313,0,4.313-1.792,4.313-2.468c0-1.645-0.759-2.314-2.618-2.314h-5.748
			c-6.897,0-10.542-3.593-10.542-10.392c0-7.194,5.044-10.843,14.989-10.843c4.071,0,7.962,0.627,11.562,1.863l0.581,0.199v8.541
			l-1.179-0.471c-3.412-1.366-7.173-2.058-11.175-2.058c-3.746,0-5.645,0.83-5.645,2.466c0,1.147,0.346,2.317,2.922,2.317h5.143
			c7.49,0,11.449,3.594,11.449,10.39C235.844,41.637,231.014,45.286,221.49,45.286z"/>
		<path class="st3" d="M256.341,44.984c-12.034,0-18.135-5.755-18.135-17.107c0-10.868,5.308-16.379,15.775-16.379
			c10.167,0,15.322,5.256,15.322,15.622c0,1.346-0.095,2.708-0.282,4.052l-0.102,0.741h-20.941c0.182,1.851,1.363,4.996,8.967,4.996
			c3.141,0,6.324-0.3,9.462-0.894l1.02-0.193v8.086l-0.679,0.148C263.896,44.671,260.395,44.984,256.341,44.984z M259.76,24.626
			c-0.189-3.486-2.04-5.114-5.778-5.114c-3.495,0-5.399,1.629-5.933,5.114H259.76z"/>
		<path class="st3" d="M293.616,44.984v-20.89c0-3.044-1.349-4.402-4.373-4.402c-2.276,0-4.549,0.896-6.762,2.663v22.629h-9.739
			V11.497h7.759l0.824,3.844c2.93-2.553,6.249-3.844,9.885-3.844c7.945,0,12.145,4.356,12.145,12.596v20.89H293.616z"/>
		<path class="st3" d="M315.869,44.984c-5.789,0-8.847-3.259-8.847-9.423V6.353h7.471l1.21,5.144h8.166v8.074h-7.11v13.75
			c0,3.18,1.595,3.588,2.983,3.588h4.127v8.074H315.869z"/>
		<path class="st3" d="M344.216,44.984c-12.034,0-18.135-5.755-18.135-17.107c0-10.868,5.309-16.379,15.775-16.379
			c10.167,0,15.322,5.256,15.322,15.622c0,1.346-0.095,2.708-0.281,4.052l-0.102,0.741h-20.942c0.184,1.851,1.363,4.996,8.968,4.996
			c3.14,0,6.324-0.3,9.461-0.894l1.02-0.193v8.086l-0.679,0.148C351.771,44.671,348.269,44.984,344.216,44.984z M347.634,24.626
			c-0.189-3.486-2.038-5.114-5.778-5.114c-3.495,0-5.4,1.629-5.934,5.114H347.634z"/>
		<path class="st3" d="M360.616,44.984V11.497h7.736l0.816,3.311c2.626-2.199,5.426-3.311,8.342-3.311h0.86v8.194h-0.86
			c-2.666,0-5.01,1.051-7.156,3.21v22.083H360.616z"/>
		<path class="st3" d="M393.967,45.286c-4.491,0-8.596-0.626-12.198-1.862l-0.581-0.199v-8.542l1.18,0.473
			c3.411,1.364,7.416,2.056,11.903,2.056c4.312,0,4.312-1.792,4.312-2.468c0-1.645-0.759-2.314-2.619-2.314h-5.747
			c-6.897,0-10.541-3.593-10.541-10.392c0-7.194,5.043-10.843,14.987-10.843c4.072,0,7.962,0.627,11.564,1.863l0.582,0.199v8.541
			l-1.18-0.471c-3.413-1.366-7.174-2.058-11.176-2.058c-3.745,0-5.643,0.83-5.643,2.466c0,1.147,0.346,2.317,2.92,2.317h5.144
			c7.49,0,11.448,3.594,11.448,10.39C408.321,41.637,403.491,45.286,393.967,45.286z"/>
		<polygon class="st3" points="409.582,14.881 414.712,0 423.945,0 418.814,14.881 		"/>
	</g>
</g>
</svg>